# xmcd
#
# Track frame offsets: 
#        150
#        17011
#        36227
#        57130
#        77112
#        92100
#        108736
#        127613
#        147407
#        165640
#        182997
#
# Disc length: 2692 seconds
#
# Revision: 0
# Processed by: cddbd v1.5.2PL0 Copyright (c) Steve Scherf et al.
# Submitted via: ExactAudioCopy v0.99pb5
#
DISCID=8f0a820b
DTITLE=DeShawnMusic - Wolf By The Moon
DYEAR=2015
DGENRE=R&B
TTITLE0=Zodiac Sign
TTITLE1=X-Rated (ft. T.R.U.T.H)
TTITLE2=Beautiful
TTITLE3=Don't Talk About It
TTITLE4=Showgirl
TTITLE5=Tonight (ft. Jekarra)
TTITLE6=You and Me
TTITLE7=I'm Sorry
TTITLE8=Conceited
TTITLE9=Wolf By The Moon
TTITLE10=My Baby
EXTD=
EXTT0=
EXTT1=
EXTT2=
EXTT3=
EXTT4=
EXTT5=
EXTT6=
EXTT7=
EXTT8=
EXTT9=
EXTT10=
PLAYORDER=
